<?xml version="1.0" encoding="UTF-8"?><svg xmlns="http://www.w3.org/2000/svg" xmlns:xlink="http://www.w3.org/1999/xlink" viewBox="0 0 248.29 79.82"><defs><style>.i{fill:#0071ae;}.j{fill:url(#f);}.k{fill:url(#g);}.l{fill:url(#h);}.m{fill:url(#d);}.n{fill:url(#e);}.o{fill:#0471b1;}</style><linearGradient id="d" x1="158.74" y1="56.14" x2="202.37" y2="56.14" gradientTransform="matrix(1, 0, 0, 1, 0, 0)" gradientUnits="userSpaceOnUse"><stop offset="0" stop-color="#3aaa35"/><stop offset="1" stop-color="#95c11f"/></linearGradient><linearGradient id="e" x1="210.29" y1="55.42" x2="248.29" y2="55.42" xlink:href="#d"/><linearGradient id="f" x1="191.61" y1="15.95" x2="215.85" y2="15.95" xlink:href="#d"/><linearGradient id="g" x1="12.19" y1="19.34" x2="31.15" y2="19.34" gradientTransform="translate(201.57) rotate(-180) scale(1 -1)" xlink:href="#d"/><linearGradient id="h" x1="278.38" y1="65.03" x2="287.94" y2="65.03" gradientTransform="translate(435.85 164.49) rotate(-135) scale(1 -1)" xlink:href="#d"/></defs><g id="a"/><g id="b"><g id="c"><g><g><path class="i" d="M148.76,46.42c-1.01-2.83-2.42-5.25-4.23-7.25s-3.96-3.55-6.44-4.64c-2.47-1.1-5.2-1.64-8.17-1.64s-5.46,.58-7.87,1.74c-2.41,1.16-4.37,2.96-5.87,5.38h-.21V3.46h-9.23V77.95h7.18l1.95-6.2h.31c1.54,2.67,3.48,4.61,5.82,5.82,2.34,1.21,4.89,1.82,7.66,1.82s5.4-.55,7.9-1.64c2.49-1.1,4.68-2.65,6.56-4.67,1.88-2.01,3.37-4.47,4.49-7.38,1.11-2.9,1.66-6.19,1.66-9.84,0-3.46-.5-6.6-1.51-9.44Zm-9.49,19.36c-.56,2.51-1.35,4.48-2.35,5.89-1.01,1.42-2.21,2.39-3.59,2.9-1.39,.51-2.9,.77-4.54,.77-.75,0-1.6-.08-2.54-.23-.94-.16-1.88-.46-2.82-.93-.94-.46-1.86-1.12-2.77-1.99-.9-.88-1.7-2.04-2.38-3.49-.69-1.45-1.24-3.24-1.67-5.36-.42-2.12-.64-4.65-.64-7.59s.23-5.46,.7-7.76c.46-2.31,1.19-4.28,2.2-5.93,1.01-1.64,2.31-2.9,3.92-3.79,1.61-.89,3.57-1.33,5.9-1.33,1.71,0,3.26,.25,4.66,.77,1.4,.51,2.61,1.48,3.62,2.89,1.01,1.42,1.78,3.37,2.33,5.85,.55,2.48,.82,5.66,.82,9.56s-.28,7.25-.85,9.77Z"/><path class="m" d="M202.37,77.95c-1.44,.27-2.77,.44-4,.51-1.23,.07-2.2,.1-2.92,.1-1.81,0-3.31-.15-4.49-.44-1.18-.29-2.11-.71-2.79-1.26-.68-.55-1.18-1.21-1.49-2-.31-.79-.5-1.66-.56-2.62h-.26c-.96,1.33-1.98,2.46-3.08,3.38-1.09,.92-2.24,1.66-3.43,2.2-1.2,.55-2.42,.94-3.67,1.18-1.25,.24-2.5,.36-3.77,.36-2.08,0-3.95-.28-5.59-.85-1.64-.56-3.03-1.36-4.15-2.38-1.13-1.03-1.98-2.25-2.56-3.67-.58-1.42-.87-2.98-.87-4.69,0-4.75,2.33-8.37,7-10.84,4.67-2.48,11.39-3.8,20.17-3.97,.03-1.54,.06-2.92,.08-4.15,.02-1.23,.03-2.44,.03-3.64,0-3.11-.64-5.29-1.92-6.54-1.28-1.25-3.31-1.87-6.08-1.87-1.85,0-3.5,.21-4.95,.62-1.45,.41-2.64,.96-3.56,1.64,.82,.79,1.43,1.62,1.82,2.49,.39,.87,.59,1.74,.59,2.59,0,1.44-.46,2.63-1.38,3.59-.92,.96-2.19,1.44-3.79,1.44-.68,0-1.35-.1-2-.31s-1.21-.53-1.69-.97c-.48-.44-.86-1-1.15-1.67-.29-.67-.44-1.44-.44-2.33,0-1.4,.38-2.76,1.15-4.08,.77-1.32,1.91-2.49,3.43-3.51,1.52-1.03,3.42-1.85,5.69-2.46,2.27-.62,4.93-.92,7.97-.92,2.46,0,4.64,.24,6.54,.72,1.9,.48,3.5,1.27,4.82,2.38,1.32,1.11,2.31,2.59,2.97,4.43,.67,1.85,1,4.14,1,6.87,0,.68,0,1.8-.03,3.36-.02,1.56-.04,3.27-.08,5.15-.03,1.88-.06,3.79-.08,5.72-.02,1.93-.03,3.63-.03,5.1s.03,2.76,.1,3.77c.07,1.01,.24,1.81,.51,2.41,.27,.6,.68,1.03,1.23,1.28,.55,.26,1.32,.38,2.31,.38,.85,0,1.98-.1,3.38-.31v3.79Zm-16.46-21.12c-3.73,.1-6.73,.38-9.02,.85-2.29,.46-4.07,1.11-5.33,1.95-1.26,.84-2.12,1.85-2.56,3.05-.44,1.2-.67,2.56-.67,4.1,0,2.67,.55,4.66,1.67,5.97,1.11,1.32,2.64,1.97,4.59,1.97,1.06,0,2.25-.22,3.56-.67,1.32-.44,2.55-1.17,3.72-2.18,1.16-1.01,2.13-2.33,2.9-3.97,.77-1.64,1.15-3.67,1.15-6.1v-4.97Z"/><path class="n" d="M248.27,73.85v-27.02c0-4.47-1.14-7.92-3.43-10.33-2.29-2.41-5.78-3.61-10.46-3.61-3.73,0-6.77,.76-9.13,2.28s-4.24,3.7-5.64,6.54h-.2v-7.44h-9.12v43.68h9.06v-9.72h.06v-11.81c0-3.28,.32-6.12,.97-8.51s1.53-4.36,2.64-5.9c1.11-1.54,2.42-2.67,3.92-3.41,1.51-.73,3.13-1.1,4.88-1.1,2.28,0,4.06,.64,5.33,1.92,1.26,1.29,1.89,3.28,1.89,5.98v28.45h-.03v4.1h9.27v-4.1h-.01Z"/></g><g><path class="j" d="M193.32,16.95s-2.18,8.25-1.61,14.56c0,0,5.33-18.52,16.91-24.36,0,0-9.17,8.08-12.1,17.48,0,0,6.42-.11,13.47-6.13,0,0,3.84-2.87,5.33-10.15,0,0,.57-3.15,.52-7.97,0,0-8.48-.11-15.25,5.56,0,0-6.15,5.37-7.28,11.01Z"/><path class="k" d="M188.05,20.12s1.7,6.46,1.26,11.39c0,0-4.17-14.48-13.23-19.05,0,0,7.17,6.32,9.46,13.67,0,0-5.02-.09-10.54-4.8,0,0-3-2.24-4.17-7.94,0,0-.45-2.47-.4-6.23,0,0,6.64-.09,11.93,4.35,0,0,4.81,4.2,5.69,8.61Z"/><path class="l" d="M192.27,13.43s-1.7,2.91-3.62,4.51c0,0,3.68-6.66,2.08-11.52,0,0,.3,4.82-1.5,8.26,0,0-1.76-1.82-2.05-5.47,0,0-.27-1.87,1.34-4.32,0,0,.72-1.04,2.08-2.37,0,0,2.4,2.34,2.7,5.81,0,0,.22,3.21-1.04,5.1Z"/></g><path class="o" d="M53.3,75.36c-.56,.04-1,.05-1.31,.05-1.67,0-2.98-.4-3.92-1.2s-1.68-1.93-2.23-3.38c-.55-1.46-.98-3.18-1.31-5.18-.32-2-.69-4.21-1.1-6.64-.41-2.36-.88-4.52-1.41-6.49-.53-1.96-1.27-3.71-2.2-5.25-.95-1.54-2.18-2.84-3.7-3.9-1.52-1.06-3.46-1.86-5.82-2.41v-.2c2.84-.62,5.31-1.52,7.41-2.7,2.11-1.17,3.86-2.58,5.26-4.23,1.4-1.64,2.45-3.46,3.15-5.48,.7-2.02,1.05-4.15,1.05-6.41,0-2.6-.49-4.96-1.48-7.1-1-2.14-2.64-3.96-4.93-5.46-2.29-1.5-5.29-2.67-9.02-3.49-3.73-.82-8.31-1.23-13.74-1.23H0V79.16H10V42.4h9.64c2.7,0,4.84,.35,6.41,1.05s2.82,1.88,3.74,3.54c.92,1.65,1.64,3.85,2.16,6.58,.51,2.74,1.02,6.12,1.53,10.16,.34,2.76,.7,5.16,1.08,7.17,.38,2.02,1.02,3.69,1.92,5.03,.91,1.33,2.21,2.31,3.9,2.94,1.69,.64,4.02,.95,7,.95,.51,0,1.1-.01,1.77-.02,.66-.02,1.35-.05,2.05-.1,.7-.06,1.39-.13,2.07-.24,.69-.1,1.32-.22,1.9-.35v-3.95c-.68,.1-1.31,.17-1.87,.2ZM26.08,37.37c-2.48,.62-5.57,.93-9.26,.93h-6.82V8.76h7.38c3.9,0,7.07,.25,9.52,.75,2.44,.49,4.35,1.27,5.74,2.33,1.38,1.06,2.33,2.44,2.84,4.13,.52,1.69,.77,3.73,.77,6.12,0,2.88-.31,5.33-.95,7.36-.63,2.04-1.71,3.71-3.23,5.03-1.52,1.31-3.52,2.28-5.99,2.89Z"/><path class="i" d="M98.08,33.94h.03v43.68h-9.23v-6.56h-.2c-1.51,2.74-3.37,4.75-5.59,6.05-2.22,1.3-5.09,1.95-8.61,1.95-4.89,0-8.52-1.19-10.9-3.57s-3.56-5.83-3.56-10.38v-31.17h9.23v32.71c0,2.77,.64,4.76,1.92,5.97,1.28,1.22,3.12,1.82,5.51,1.82,1.67,0,3.26-.31,4.74-.94,1.49-.64,2.79-1.67,3.9-3.11,1.11-1.43,1.98-3.31,2.61-5.64,.64-2.32,.95-5.17,.95-8.56v-16.31h.02V18.69h-4.16L93.23,0l8.49,18.69h-3.63v15.25Z"/></g></g></g></svg>